<svg id="visual" viewBox="0 0 1920 1080" width="1920" height="1080" xmlns="http://www.w3.org/2000/svg" xmlns:xlink="http://www.w3.org/1999/xlink" version="1.1"><rect x="0" y="0" width="1920" height="1080" fill="#7fa6c4"></rect><defs><linearGradient id="grad1_0" x1="43.8%" y1="100%" x2="100%" y2="0%"><stop offset="14.444444444444446%" stop-color="#7fa6c4" stop-opacity="1"></stop><stop offset="85.55555555555554%" stop-color="#7fa6c4" stop-opacity="1"></stop></linearGradient></defs><defs><linearGradient id="grad2_0" x1="0%" y1="100%" x2="56.3%" y2="0%"><stop offset="14.444444444444446%" stop-color="#7fa6c4" stop-opacity="1"></stop><stop offset="85.55555555555554%" stop-color="#7fa6c4" stop-opacity="1"></stop></linearGradient></defs><g transform="translate(1920, 1080)"><path d="M-971 0C-906.2 -111.3 -841.3 -222.5 -781.6 -323.8C-721.9 -425 -667.2 -516.1 -595.4 -595.4C-523.6 -674.7 -434.6 -742.1 -332.6 -802.9C-230.5 -863.6 -115.2 -917.8 0 -972L0 0Z" fill="#ffffff"></path></g><g transform="translate(0, 0)"><path d="M955 0C876.3 93.3 797.6 186.6 769.6 318.8C741.6 450.9 764.3 622 687.3 687.3C610.3 752.7 433.5 712.4 302.3 729.9C171.1 747.4 85.6 822.7 0 898L0 0Z" fill="#ffffff"></path></g></svg>